<svg width="80" height="80" viewBox="0 0 80 80" fill="none" xmlns="http://www.w3.org/2000/svg">
<g id="Vector">
<path id="Vector_2" d="M31.6667 51.0002H48.3334M15 51.0002H8.33337V19.0002C8.33337 19.0002 41.7888 19.0002 60.8667 19.0002C62.1092 18.9915 63.3293 19.3302 64.3894 19.9781C65.4496 20.626 66.3076 21.5573 66.8667 22.6668L69.5334 28.1002C70.9329 30.8822 71.6634 33.9526 71.6667 37.0668V51.0002H65.0001M31.6667 52.6668C31.6667 57.2692 27.9358 61.0002 23.3334 61.0002C18.731 61.0002 15 57.2692 15 52.6668C15 48.0645 18.731 44.3335 23.3334 44.3335C27.9358 44.3335 31.6667 48.0645 31.6667 52.6668ZM65.0001 52.6668C65.0001 57.2692 61.2691 61.0002 56.6667 61.0002C52.0643 61.0002 48.3334 57.2692 48.3334 52.6668C48.3334 48.0645 52.0643 44.3335 56.6667 44.3335C61.2691 44.3335 65.0001 48.0645 65.0001 52.6668Z" stroke="white" stroke-width="3" stroke-linecap="round" stroke-linejoin="round"/>
</g>
</svg>
