<svg width="30" height="30" viewBox="0 0 30 30" fill="none" xmlns="http://www.w3.org/2000/svg">
<g id="Vector" clip-path="url(#clip0_1_125)">
<path id="Vector_2" d="M24.375 12.425C25.5384 13.0954 26.532 14.0246 27.2787 15.1406C28.0254 16.2566 28.5052 17.5295 28.6811 18.8607C28.8569 20.1919 28.724 21.5457 28.2926 22.8173C27.8613 24.0889 27.1431 25.2442 26.1936 26.1936C25.2441 27.1431 24.0888 27.8613 22.8172 28.2927C21.5456 28.724 20.1918 28.857 18.8606 28.6811C17.5294 28.5053 16.2565 28.0254 15.1405 27.2787C14.0245 26.532 13.0954 25.5385 12.425 24.375M8.75 7.50006H10V12.5001M21.625 17.875L22.5 18.75L19 22.25M18.75 10.0001C18.75 14.8326 14.8325 18.7501 10 18.7501C5.16751 18.7501 1.25 14.8326 1.25 10.0001C1.25 5.16757 5.16751 1.25006 10 1.25006C14.8325 1.25006 18.75 5.16757 18.75 10.0001Z" stroke="white" stroke-width="2" stroke-linecap="round" stroke-linejoin="round"/>
</g>
<defs>
<clipPath id="clip0_1_125">
<rect width="30" height="30" fill="white"/>
</clipPath>
</defs>
</svg>
