<svg width="80" height="80" viewBox="0 0 80 80" fill="none" xmlns="http://www.w3.org/2000/svg">
<g id="Vector">
<path id="Vector_2" d="M23.3334 66.6668H56.6667M33.3334 66.6668C51.6667 58.3335 36 45.3335 43.3334 33.3335M43.3334 33.3335C43.1803 28.6207 44.4587 23.972 47 20.0002C50 16.6668 54.3334 13.6668 63.3334 13.3335C63 21.0002 61 25.3335 57.6667 28.6668C54.3334 31.3335 49.6667 33.0002 43.3334 33.3335ZM31.6667 31.3334C35.3334 34.0001 37.6667 38.6668 39.3334 43.6668C32.6667 45.0001 27.6667 45.0001 23.3334 42.6668C19.3334 40.6668 15.6667 36.3334 13.3334 28.6668C22.6667 27.0001 28 28.6668 31.6667 31.3334Z" stroke="white" stroke-width="3" stroke-linejoin="round"/>
</g>
</svg>
