<svg width="80" height="80" viewBox="0 0 80 80" fill="none" xmlns="http://www.w3.org/2000/svg">
<g id="Vector">
<path id="Vector_2" d="M39.9935 41.1602V49.4935M39.9935 49.4935H16.6602V57.8268M39.9935 49.4935H63.3268V57.8268M39.9935 49.4935V57.8268M39.9935 57.8268H30.9935V75.8268H48.9935V57.8268H39.9935ZM53.9935 57.8268H72.3268V75.8268H53.9935V57.8268ZM7.66016 57.8268H25.6602V75.8268H7.66016V57.8268ZM40.4019 4.16016H39.5952C38.6227 4.16016 37.6899 4.5465 37.0022 5.2342C36.3146 5.92189 35.9282 6.85461 35.9282 7.82716V8.15719C35.9275 8.80024 35.7578 9.43182 35.436 9.98855C35.1142 10.5453 34.6516 11.0076 34.0947 11.3291L33.3063 11.7875C32.7488 12.1094 32.1165 12.2788 31.4728 12.2788C30.8291 12.2788 30.1968 12.1094 29.6393 11.7875L29.3643 11.6408C28.5228 11.1554 27.5231 11.0238 26.5847 11.2747C25.6462 11.5256 24.8457 12.1387 24.3588 12.9793L23.9555 13.676C23.4701 14.5175 23.3384 15.5172 23.5893 16.4556C23.8403 17.3941 24.4533 18.1946 25.2939 18.6815L25.5689 18.8648C26.1232 19.1848 26.584 19.6442 26.9056 20.1975C27.2273 20.7507 27.3986 21.3785 27.4024 22.0184V22.9535C27.405 23.5997 27.2368 24.2351 26.9148 24.7953C26.5928 25.3555 26.1285 25.8207 25.5689 26.1438L25.2939 26.3088C24.4533 26.7957 23.8403 27.5963 23.5893 28.5347C23.3384 29.4732 23.4701 30.4728 23.9555 31.3143L24.3588 32.011C24.8457 32.8516 25.6462 33.4647 26.5847 33.7156C27.5231 33.9665 28.5228 33.8349 29.3643 33.3495L29.6393 33.2028C30.1968 32.8809 30.8291 32.7115 31.4728 32.7115C32.1165 32.7115 32.7488 32.8809 33.3063 33.2028L34.0947 33.6612C34.6516 33.9827 35.1142 34.445 35.436 35.0018C35.7578 35.5585 35.9275 36.1901 35.9282 36.8331V37.1632C35.9282 38.1357 36.3146 39.0684 37.0022 39.7561C37.6899 40.4438 38.6227 40.8302 39.5952 40.8302H40.4019C41.3745 40.8302 42.3072 40.4438 42.9949 39.7561C43.6826 39.0684 44.0689 38.1357 44.0689 37.1632V36.8331C44.0696 36.1901 44.2394 35.5585 44.5612 35.0018C44.883 34.445 45.3455 33.9827 45.9024 33.6612L46.6908 33.2028C47.2483 32.8809 47.8807 32.7115 48.5244 32.7115C49.168 32.7115 49.8004 32.8809 50.3578 33.2028L50.6329 33.3495C51.4743 33.8349 52.474 33.9665 53.4125 33.7156C54.3509 33.4647 55.1514 32.8516 55.6383 32.011L56.0417 31.2959C56.5271 30.4545 56.6588 29.4548 56.4078 28.5164C56.1569 27.5779 55.5438 26.7774 54.7032 26.2905L54.4282 26.1438C53.8686 25.8207 53.4043 25.3555 53.0824 24.7953C52.7604 24.2351 52.5922 23.5997 52.5947 22.9535V22.0368C52.5922 21.3906 52.7604 20.7552 53.0824 20.195C53.4043 19.6348 53.8686 19.1696 54.4282 18.8465L54.7032 18.6815C55.5438 18.1946 56.1569 17.3941 56.4078 16.4556C56.6588 15.5172 56.5271 14.5175 56.0417 13.676L55.6383 12.9793C55.1514 12.1387 54.3509 11.5256 53.4125 11.2747C52.474 11.0238 51.4743 11.1554 50.6329 11.6408L50.3578 11.7875C49.8004 12.1094 49.168 12.2788 48.5244 12.2788C47.8807 12.2788 47.2483 12.1094 46.6908 11.7875L45.9024 11.3291C45.3455 11.0076 44.883 10.5453 44.5612 9.98855C44.2394 9.43182 44.0696 8.80024 44.0689 8.15719V7.82716C44.0689 6.85461 43.6826 5.92189 42.9949 5.2342C42.3072 4.5465 41.3745 4.16016 40.4019 4.16016ZM45.4991 22.4952C45.4991 25.533 43.0364 27.9957 39.9986 27.9957C36.9607 27.9957 34.4981 25.533 34.4981 22.4952C34.4981 19.4573 36.9607 16.9947 39.9986 16.9947C43.0364 16.9947 45.4991 19.4573 45.4991 22.4952Z" stroke="white" stroke-width="3" stroke-linecap="round" stroke-linejoin="round"/>
</g>
</svg>
