<svg width="80" height="80" viewBox="0 0 80 80" fill="none" xmlns="http://www.w3.org/2000/svg">
<g id="Vector">
<path id="Vector_2" d="M23.3333 73.3334H13.3333C11.5652 73.3334 9.86949 72.631 8.61925 71.3808C7.369 70.1305 6.66663 68.4348 6.66663 66.6667V43.3334C6.66663 41.5653 7.369 39.8696 8.61925 38.6194C9.86949 37.3691 11.5652 36.6667 13.3333 36.6667H23.3333M46.6666 30.0001V16.6667C46.6666 14.0146 45.6131 11.471 43.7377 9.59568C41.8623 7.72032 39.3188 6.66675 36.6666 6.66675L23.3333 36.6667V73.3334H60.9333C62.5411 73.3516 64.1012 72.7881 65.3263 71.7468C66.5514 70.7054 67.3589 69.2564 67.6 67.6667L72.2 37.6667C72.345 36.7113 72.2805 35.7357 72.0111 34.8076C71.7416 33.8795 71.2736 33.0211 70.6395 32.2918C70.0053 31.5625 69.2202 30.9798 68.3385 30.5841C67.4568 30.1884 66.4996 29.9891 65.5333 30.0001H46.6666Z" stroke="white" stroke-width="3" stroke-linejoin="round"/>
</g>
</svg>
