<svg width="25" height="25" fill="none" xmlns="http://www.w3.org/2000/svg"><path d="M12.5 0C9.104 0 8.68.016 7.347.075 6.016.138 5.109.347 4.312.656a6.121 6.121 0 0 0-2.214 1.442A6.099 6.099 0 0 0 .656 4.313c-.31.796-.52 1.703-.581 3.034C.012 8.68 0 9.104 0 12.5s.016 3.82.075 5.153c.063 1.33.272 2.238.581 3.035a6.13 6.13 0 0 0 1.442 2.214 6.114 6.114 0 0 0 2.215 1.442c.797.308 1.704.52 3.034.581C8.68 24.988 9.104 25 12.5 25s3.82-.016 5.153-.075c1.33-.063 2.238-.273 3.035-.581a6.146 6.146 0 0 0 2.214-1.442 6.106 6.106 0 0 0 1.442-2.215c.308-.796.52-1.704.581-3.034.063-1.333.075-1.757.075-5.153s-.016-3.82-.075-5.153c-.063-1.33-.273-2.239-.581-3.035a6.136 6.136 0 0 0-1.442-2.214A6.09 6.09 0 0 0 20.687.656c-.796-.31-1.704-.52-3.034-.581C16.32.012 15.896 0 12.5 0Zm0 2.25c3.336 0 3.734.017 5.052.074 1.219.057 1.88.26 2.32.432.585.226 1 .497 1.44.934.436.437.707.853.933 1.438.17.44.375 1.101.43 2.32.06 1.319.073 1.714.073 5.052 0 3.338-.016 3.734-.077 5.052-.064 1.219-.267 1.88-.439 2.32-.233.585-.499 1-.936 1.44a3.9 3.9 0 0 1-1.438.933c-.437.17-1.109.375-2.328.43-1.327.06-1.718.073-5.061.073-3.345 0-3.736-.016-5.062-.077-1.22-.064-1.891-.267-2.329-.439a3.87 3.87 0 0 1-1.436-.936 3.795 3.795 0 0 1-.938-1.438c-.172-.437-.374-1.109-.437-2.328-.047-1.312-.064-1.718-.064-5.046 0-3.329.017-3.735.064-5.063.063-1.219.265-1.89.437-2.327.219-.594.5-1 .938-1.439.436-.436.843-.717 1.436-.935.438-.173 1.095-.376 2.314-.439 1.328-.047 1.718-.062 5.061-.062l.047.031Zm0 3.831a6.418 6.418 0 1 0 0 12.838 6.418 6.418 0 1 0 0-12.838Zm0 10.586A4.166 4.166 0 0 1 8.333 12.5 4.166 4.166 0 0 1 12.5 8.333a4.166 4.166 0 0 1 4.167 4.167 4.166 4.166 0 0 1-4.167 4.167Zm8.173-10.839a1.501 1.501 0 0 1-3 0 1.5 1.5 0 0 1 3 0Z" fill="#000"/></svg>