<?xml version="1.0" encoding="utf-8"?><svg viewBox="0 0 80 80" xmlns="http://www.w3.org/2000/svg" xmlns:xlink="http://www.w3.org/1999/xlink"><style>:root>svg{display:none}:root>svg:target{display:block}</style><svg fill="none" viewBox="0 0 80 80" id="car" xmlns="http://www.w3.org/2000/svg"><path d="M31.667 51h16.666M15 51H8.333V19h52.534a6.666 6.666 0 0 1 6 3.667l2.666 5.433a20 20 0 0 1 2.134 8.967V51H65m-33.333 1.667a8.333 8.333 0 1 1-16.667 0 8.333 8.333 0 0 1 16.667 0Zm33.333 0a8.333 8.333 0 1 1-16.667 0 8.333 8.333 0 0 1 16.667 0Z" stroke="#fff" stroke-width="3" stroke-linecap="round" stroke-linejoin="round"/></svg><svg viewBox="0 0 30 30" id="card" xmlns="http://www.w3.org/2000/svg"><path d="M1.25 12.5h27.5M3.75 5h22.5a2.5 2.5 0 0 1 2.5 2.5v15a2.5 2.5 0 0 1-2.5 2.5H3.75a2.5 2.5 0 0 1-2.5-2.5v-15A2.5 2.5 0 0 1 3.75 5Z"/></svg><svg fill="none" viewBox="0 0 30 30" id="coins" xmlns="http://www.w3.org/2000/svg"><g clip-path="url(#ca)"><path d="M24.375 12.425a8.75 8.75 0 1 1-11.95 11.95M8.75 7.5H10v5m11.625 5.375.875.875-3.5 3.5M18.75 10a8.75 8.75 0 1 1-17.5 0 8.75 8.75 0 0 1 17.5 0Z" stroke="#fff" stroke-width="2" stroke-linecap="round" stroke-linejoin="round"/></g><defs><clipPath id="ca"><path fill="#fff" d="M0 0h30v30H0z"/></clipPath></defs></svg><svg fill="none" viewBox="0 0 80 80" id="eco" xmlns="http://www.w3.org/2000/svg"><path d="M23.333 66.667h33.334m-23.334 0c18.334-8.334 2.667-21.334 10-33.334m0 0A23.334 23.334 0 0 1 47 20c3-3.333 7.333-6.333 16.333-6.666C63 21 61 25.334 57.667 28.666c-3.334 2.666-8 4.333-14.334 4.666Zm-11.666-2c3.666 2.667 6 7.334 7.666 12.334-6.666 1.333-11.666 1.333-16-1-4-2-7.666-6.334-10-14 9.334-1.667 14.667 0 18.334 2.666Z" stroke="#fff" stroke-width="3" stroke-linejoin="round"/></svg><svg fill="none" viewBox="0 0 80 80" id="infrastructure" xmlns="http://www.w3.org/2000/svg"><path d="M39.993 41.16v8.334m0 0H16.66v8.333m23.333-8.334h23.334v8.334m-23.334-8.334v8.334m0 0h-9v18h18v-18h-9Zm14 0h18.334v18H53.993v-18Zm-46.333 0h18v18h-18v-18ZM40.402 4.16h-.807a3.667 3.667 0 0 0-3.667 3.667v.33a3.667 3.667 0 0 1-1.833 3.172l-.789.458a3.667 3.667 0 0 1-3.667 0l-.275-.146a3.667 3.667 0 0 0-5.005 1.338l-.404.697a3.667 3.667 0 0 0 1.339 5.005l.275.184a3.666 3.666 0 0 1 1.833 3.153v.935a3.666 3.666 0 0 1-1.833 3.19l-.275.166a3.667 3.667 0 0 0-1.338 5.005l.403.697a3.667 3.667 0 0 0 5.005 1.338l.275-.146a3.667 3.667 0 0 1 3.667 0l.789.458a3.666 3.666 0 0 1 1.833 3.172v.33a3.667 3.667 0 0 0 3.667 3.667h.807a3.667 3.667 0 0 0 3.667-3.667v-.33a3.667 3.667 0 0 1 1.833-3.172l.789-.458a3.667 3.667 0 0 1 3.667 0l.275.146a3.667 3.667 0 0 0 5.005-1.338l.404-.715a3.666 3.666 0 0 0-1.339-5.005l-.275-.147a3.667 3.667 0 0 1-1.833-3.19v-.917a3.667 3.667 0 0 1 1.833-3.19l.275-.166a3.667 3.667 0 0 0 1.339-5.005l-.404-.697a3.667 3.667 0 0 0-5.005-1.338l-.275.146a3.666 3.666 0 0 1-3.667 0l-.789-.458a3.666 3.666 0 0 1-1.833-3.172v-.33a3.667 3.667 0 0 0-3.667-3.667Zm5.097 18.335a5.5 5.5 0 1 1-11.001 0 5.5 5.5 0 0 1 11.001 0Z" stroke="#fff" stroke-width="3" stroke-linecap="round" stroke-linejoin="round"/></svg><svg fill="none" viewBox="0 0 80 80" id="like" xmlns="http://www.w3.org/2000/svg"><path d="M23.333 73.333h-10a6.667 6.667 0 0 1-6.666-6.666V43.333a6.666 6.666 0 0 1 6.666-6.666h10M46.667 30V16.667a10 10 0 0 0-10-10l-13.334 30v36.666h37.6a6.667 6.667 0 0 0 6.667-5.666l4.6-30A6.668 6.668 0 0 0 65.533 30H46.667Z" stroke="#fff" stroke-width="3" stroke-linejoin="round"/></svg><svg fill="none" viewBox="0 0 30 30" id="people" xmlns="http://www.w3.org/2000/svg"><path d="M21.25 26.25v-2.5a5 5 0 0 0-5-5h-10a5 5 0 0 0-5 5v2.5m27.5 0v-2.5A5 5 0 0 0 25 18.913m-5-15a5 5 0 0 1 0 9.687m-3.75-4.85a5 5 0 1 1-10 0 5 5 0 0 1 10 0Z" stroke="#fff" stroke-width="2" stroke-linecap="round" stroke-linejoin="round"/></svg><svg fill="none" viewBox="0 0 80 80" id="schema" xmlns="http://www.w3.org/2000/svg"><path d="M69.5 44.5h-25v25m0-59v15m-34-15h59v59h-59v-59Z" stroke="#fff" stroke-width="3" stroke-linecap="round" stroke-linejoin="round"/></svg></svg>