<svg width="25" height="25" fill="none" xmlns="http://www.w3.org/2000/svg"><g clip-path="url(#a)"><path d="m9.884.005.76-.004h3.712l.76.004.953.01.45.007.436.012.42.014.404.017.39.022.375.026.36.031.346.035c1.813.204 3.055.641 3.993 1.579.937.937 1.375 2.179 1.579 3.992l.035.347.03.36.026.376.021.388.026.613.013.427.014.67.009.954.004 1.02-.001 3.452-.003.76-.01.952-.008.451-.011.436-.015.42-.017.404-.021.39-.027.374-.03.36-.035.346c-.204 1.813-.642 3.056-1.58 3.993-.937.938-2.178 1.375-3.992 1.58l-.347.035-.36.03-.375.026-.389.02-.612.027-.427.012-.671.014-.953.01-1.021.003h-3.451l-.76-.004-.953-.01-.45-.008-.436-.01-.42-.015-.404-.017-.39-.022-.375-.026-.36-.031-.346-.035c-1.813-.204-3.055-.641-3.993-1.579C.82 22.306.382 21.064.178 19.25l-.035-.346-.03-.36-.027-.376-.02-.388-.026-.613-.013-.427-.013-.67-.01-.954L0 14.096l.001-3.452.003-.76.01-.952.008-.451.011-.436.015-.42.017-.404.021-.39.027-.374.03-.36.035-.347c.204-1.812.642-3.055 1.58-3.992C2.694.82 3.935.383 5.75.178l.347-.035.36-.03.375-.026.389-.021.612-.026.427-.012.671-.014.953-.01Zm-2.811 7.6H4.219c.135 6.5 3.385 10.406 9.083 10.406h.323v-3.719c2.094.208 3.677 1.74 4.313 3.719h2.958c-.813-2.958-2.948-4.594-4.281-5.219 1.333-.77 3.208-2.646 3.656-5.187h-2.688c-.583 2.062-2.312 3.937-3.958 4.114V7.605h-2.688v7.208c-1.666-.417-3.77-2.438-3.864-7.208Z" fill="#000"/></g><defs><clipPath id="a"><path d="M0 0h25v25H0z"/></clipPath></defs></svg>