<svg width="25" height="25" fill="none" xmlns="http://www.w3.org/2000/svg"><path d="M12.442 0a12.5 12.5 0 1 0 .116 25 12.5 12.5 0 0 0-.116-25Zm5.168 7.525c.105-.002.335.024.485.146.1.086.163.207.178.338.017.097.037.32.02.492-.187 1.977-1.001 6.773-1.416 8.987-.175.937-.52 1.25-.854 1.28-.725.069-1.276-.478-1.98-.939-1.1-.722-1.721-1.17-2.789-1.875-1.234-.812-.434-1.26.269-1.99.184-.191 3.382-3.1 3.445-3.364.007-.033.014-.156-.059-.22-.073-.065-.18-.044-.259-.026-.11.025-1.868 1.188-5.272 3.485-.5.343-.95.51-1.356.5-.446-.009-1.304-.252-1.943-.459-.783-.255-1.405-.39-1.35-.822.027-.225.338-.455.93-.69 3.643-1.588 6.072-2.635 7.289-3.14 3.47-1.444 4.193-1.695 4.662-1.703Z" fill="#000"/></svg>