<svg width="19" height="20" viewBox="0 0 19 20" fill="none" xmlns="http://www.w3.org/2000/svg">
<path d="M7.12508 14.7502V13.7502C6.5728 13.7502 6.12508 14.1979 6.12508 14.7502H7.12508ZM11.8751 14.7502H12.8751C12.8751 14.1979 12.4274 13.7502 11.8751 13.7502V14.7502ZM6.33341 4.25016C5.78113 4.25016 5.33341 4.69788 5.33341 5.25016C5.33341 5.80245 5.78113 6.25016 6.33341 6.25016V4.25016ZM6.34133 6.25016C6.89362 6.25016 7.34133 5.80245 7.34133 5.25016C7.34133 4.69788 6.89362 4.25016 6.34133 4.25016V6.25016ZM12.6667 4.25016C12.1145 4.25016 11.6667 4.69788 11.6667 5.25016C11.6667 5.80245 12.1145 6.25016 12.6667 6.25016V4.25016ZM12.6747 6.25016C13.2269 6.25016 13.6747 5.80245 13.6747 5.25016C13.6747 4.69788 13.2269 4.25016 12.6747 4.25016V6.25016ZM9.50008 4.25016C8.9478 4.25016 8.50008 4.69788 8.50008 5.25016C8.50008 5.80245 8.9478 6.25016 9.50008 6.25016V4.25016ZM9.508 6.25016C10.0603 6.25016 10.508 5.80245 10.508 5.25016C10.508 4.69788 10.0603 4.25016 9.508 4.25016V6.25016ZM9.50008 7.41683C8.9478 7.41683 8.50008 7.86454 8.50008 8.41683C8.50008 8.96911 8.9478 9.41683 9.50008 9.41683V7.41683ZM9.508 9.41683C10.0603 9.41683 10.508 8.96911 10.508 8.41683C10.508 7.86454 10.0603 7.41683 9.508 7.41683V9.41683ZM9.50008 10.5835C8.9478 10.5835 8.50008 11.0312 8.50008 11.5835C8.50008 12.1358 8.9478 12.5835 9.50008 12.5835V10.5835ZM9.508 12.5835C10.0603 12.5835 10.508 12.1358 10.508 11.5835C10.508 11.0312 10.0603 10.5835 9.508 10.5835V12.5835ZM12.6667 7.41683C12.1145 7.41683 11.6667 7.86454 11.6667 8.41683C11.6667 8.96911 12.1145 9.41683 12.6667 9.41683V7.41683ZM12.6747 9.41683C13.2269 9.41683 13.6747 8.96911 13.6747 8.41683C13.6747 7.86454 13.2269 7.41683 12.6747 7.41683V9.41683ZM12.6667 10.5835C12.1145 10.5835 11.6667 11.0312 11.6667 11.5835C11.6667 12.1358 12.1145 12.5835 12.6667 12.5835V10.5835ZM12.6747 12.5835C13.2269 12.5835 13.6747 12.1358 13.6747 11.5835C13.6747 11.0312 13.2269 10.5835 12.6747 10.5835V12.5835ZM6.33341 7.41683C5.78113 7.41683 5.33341 7.86454 5.33341 8.41683C5.33341 8.96911 5.78113 9.41683 6.33341 9.41683V7.41683ZM6.34133 9.41683C6.89362 9.41683 7.34133 8.96911 7.34133 8.41683C7.34133 7.86454 6.89362 7.41683 6.34133 7.41683V9.41683ZM6.33341 10.5835C5.78113 10.5835 5.33341 11.0312 5.33341 11.5835C5.33341 12.1358 5.78113 12.5835 6.33341 12.5835V10.5835ZM6.34133 12.5835C6.89362 12.5835 7.34133 12.1358 7.34133 11.5835C7.34133 11.0312 6.89362 10.5835 6.34133 10.5835V12.5835ZM4.75008 3.0835H14.2501V1.0835H4.75008V3.0835ZM14.2501 3.0835C14.5722 3.0835 14.8334 3.34466 14.8334 3.66683H16.8334C16.8334 2.24009 15.6768 1.0835 14.2501 1.0835V3.0835ZM14.8334 3.66683V16.3335H16.8334V3.66683H14.8334ZM14.8334 16.3335C14.8334 16.6557 14.5722 16.9168 14.2501 16.9168V18.9168C15.6768 18.9168 16.8334 17.7602 16.8334 16.3335H14.8334ZM14.2501 16.9168H4.75008V18.9168H14.2501V16.9168ZM4.75008 16.9168C4.42792 16.9168 4.16675 16.6557 4.16675 16.3335H2.16675C2.16675 17.7602 3.32335 18.9168 4.75008 18.9168V16.9168ZM4.16675 16.3335V3.66683H2.16675V16.3335H4.16675ZM4.16675 3.66683C4.16675 3.34466 4.42792 3.0835 4.75008 3.0835V1.0835C3.32335 1.0835 2.16675 2.24009 2.16675 3.66683H4.16675ZM8.12508 17.9168V14.7502H6.12508V17.9168H8.12508ZM7.12508 15.7502H11.8751V13.7502H7.12508V15.7502ZM10.8751 14.7502V17.9168H12.8751V14.7502H10.8751ZM6.33341 6.25016H6.34133V4.25016H6.33341V6.25016ZM12.6667 6.25016H12.6747V4.25016H12.6667V6.25016ZM9.50008 6.25016H9.508V4.25016H9.50008V6.25016ZM9.50008 9.41683H9.508V7.41683H9.50008V9.41683ZM9.50008 12.5835H9.508V10.5835H9.50008V12.5835ZM12.6667 9.41683H12.6747V7.41683H12.6667V9.41683ZM12.6667 12.5835H12.6747V10.5835H12.6667V12.5835ZM6.33341 9.41683H6.34133V7.41683H6.33341V9.41683ZM6.33341 12.5835H6.34133V10.5835H6.33341V12.5835Z" fill="#ffffff"/>
</svg>
