<svg width="20" height="20" viewBox="0 0 20 20" fill="none" xmlns="http://www.w3.org/2000/svg">
<path d="M7.49992 18.3332V14.9998H12.4999V18.3332M6.66659 4.99984H6.67492M13.3333 4.99984H13.3416M9.99992 4.99984H10.0083M9.99992 8.33317H10.0083M9.99992 11.6665H10.0083M13.3333 8.33317H13.3416M13.3333 11.6665H13.3416M6.66659 8.33317H6.67492M6.66659 11.6665H6.67492M4.99992 1.6665H14.9999C15.9204 1.6665 16.6666 2.4127 16.6666 3.33317V16.6665C16.6666 17.587 15.9204 18.3332 14.9999 18.3332H4.99992C4.07944 18.3332 3.33325 17.587 3.33325 16.6665V3.33317C3.33325 2.4127 4.07944 1.6665 4.99992 1.6665Z" stroke="#000" stroke-width="1.5" stroke-linecap="round" stroke-linejoin="round"/>
</svg>
