<svg width="281" height="70" viewBox="0 0 281 70" fill="none" xmlns="http://www.w3.org/2000/svg">
<path d="M81.2901 41.2244L78.3141 36.5717C77.7834 35.7473 77.35 35.2024 77.0146 34.9369C76.6793 34.6715 76.1625 34.5387 75.4638 34.5387H73.7661V41.2244H72.1314V34.5387H70.4338C69.7355 34.5387 69.2182 34.6715 68.8829 34.9369C68.5618 35.2024 68.1284 35.7473 67.5835 36.5717L64.6075 41.2244H62.7422L66.1164 36.0058C66.6056 35.2513 66.9967 34.7134 67.2901 34.392C67.5978 34.0567 67.9398 33.8262 68.317 33.7004C68.0236 33.5607 67.7373 33.3371 67.4578 33.0298C67.1786 32.7084 66.8081 32.2054 66.347 31.5208L63.1194 26.5537H64.9847L67.814 30.9549C68.359 31.7932 68.7924 32.3451 69.1134 32.6106C69.4488 32.8621 69.966 32.9878 70.6643 32.9878H72.1314V26.5537H73.7661V32.9878H75.2332C75.9458 32.9878 76.463 32.8551 76.7841 32.5896C77.1194 32.3242 77.5529 31.7793 78.0835 30.9549L80.9129 26.5537H82.7781L79.5715 31.5208C78.7332 32.7503 78.0768 33.4769 77.6015 33.7004C77.9649 33.8262 78.2931 34.0497 78.5865 34.3711C78.8942 34.6924 79.2991 35.2374 79.8021 36.0058L83.1554 41.2244H81.2901Z" fill="#002040"/>
<path d="M96.1574 41.2244L93.1814 36.5717C92.6365 35.7473 92.1964 35.2024 91.861 34.9369C91.54 34.6715 91.0298 34.5387 90.3311 34.5387H87.9419V41.2244H86.3071V26.5537H87.9419V32.9878H90.1005C90.7993 32.9878 91.3094 32.8621 91.6305 32.6106C91.9658 32.3451 92.4059 31.7932 92.9509 30.9549L95.7802 26.5537H97.6455L94.4179 31.5208C93.9568 32.2054 93.5867 32.7084 93.3071 33.0298C93.028 33.3371 92.7413 33.5607 92.4479 33.7004C92.8251 33.8262 93.1604 34.0567 93.4538 34.392C93.7615 34.7134 94.1597 35.2513 94.6485 36.0058L98.0227 41.2244H96.1574Z" fill="#002040"/>
<path d="M107.825 26.5537H113.483C114.489 26.5537 115.342 26.6865 116.04 26.9519C116.739 27.2034 117.249 27.5457 117.57 27.9789C117.906 28.412 118.136 28.8242 118.262 29.2154C118.388 29.6066 118.45 30.0188 118.45 30.4519C118.45 32.0168 117.807 33.0577 116.522 33.5747C117.291 33.7563 117.898 34.1615 118.346 34.7902C118.792 35.405 119.016 36.1455 119.016 37.0118C119.016 39.8202 117.207 41.2244 113.588 41.2244H107.825V26.5537ZM110.717 29.2783V32.422H113.798C114.496 32.422 114.992 32.2683 115.286 31.9609C115.579 31.6395 115.726 31.2693 115.726 30.8501C115.726 29.8022 115.083 29.2783 113.798 29.2783H110.717ZM110.717 34.916V38.4789H114.196C114.936 38.4789 115.467 38.3182 115.789 37.9968C116.124 37.6615 116.292 37.2284 116.292 36.6974C116.292 36.1944 116.117 35.7753 115.768 35.4399C115.432 35.0907 114.909 34.916 114.196 34.916H110.717Z" fill="#002040"/>
<path d="M123.321 28.6078C124.774 27.1408 126.534 26.4072 128.602 26.4072C130.67 26.4072 132.43 27.1408 133.884 28.6078C135.351 30.0609 136.084 31.8214 136.084 33.8893C136.084 35.9571 135.351 37.7246 133.884 39.1917C132.43 40.6448 130.67 41.3713 128.602 41.3713C126.534 41.3713 124.774 40.6448 123.321 39.1917C121.868 37.7246 121.141 35.9571 121.141 33.8893C121.141 31.8214 121.868 30.0609 123.321 28.6078ZM131.872 30.4731C130.991 29.5789 129.902 29.1318 128.602 29.1318C127.303 29.1318 126.213 29.5789 125.333 30.4731C124.466 31.3673 124.033 32.506 124.033 33.8893C124.033 35.2865 124.466 36.4322 125.333 37.3264C126.213 38.2066 127.303 38.6467 128.602 38.6467C129.915 38.6467 131.005 38.2066 131.872 37.3264C132.752 36.4322 133.192 35.2865 133.192 33.8893C133.192 32.506 132.752 31.3673 131.872 30.4731Z" fill="#002040"/>
<path d="M142.437 32.3174H144.281C144.98 32.3174 145.475 32.1637 145.769 31.8563C146.062 31.535 146.209 31.1647 146.209 30.7455C146.209 29.6697 145.524 29.1318 144.155 29.1318H144.05C143.463 29.1318 142.8 29.2645 142.059 29.53C141.333 29.7954 140.704 30.1448 140.173 30.5779L138.287 28.8384C139.069 28.0978 139.956 27.511 140.948 27.0779C141.941 26.6308 142.94 26.4072 143.946 26.4072H144.092C144.847 26.4212 145.517 26.519 146.104 26.7006C146.705 26.8823 147.173 27.1128 147.508 27.3923C147.858 27.6577 148.144 27.9721 148.368 28.3354C148.591 28.6987 148.738 29.0409 148.808 29.3623C148.892 29.6837 148.934 30.012 148.934 30.3473C148.934 31.1438 148.752 31.8424 148.389 32.4432C148.025 33.0439 147.543 33.4631 146.943 33.7006C147.697 33.8823 148.291 34.2805 148.724 34.8953C149.171 35.51 149.395 36.2505 149.395 37.1168C149.395 38.3883 148.954 39.4152 148.074 40.1976C147.208 40.9661 145.839 41.3573 143.966 41.3713H143.82C142.716 41.3713 141.654 41.1268 140.634 40.6378C139.614 40.1487 138.734 39.499 137.993 38.6887L139.88 36.9491C140.396 37.4521 141.025 37.8643 141.766 38.1857C142.52 38.493 143.24 38.6467 143.925 38.6467H144.029C145.776 38.6188 146.649 38.004 146.649 36.8024C146.649 36.2994 146.474 35.8803 146.125 35.545C145.79 35.1957 145.266 35.021 144.553 35.021H142.437V32.3174Z" fill="#002040"/>
<path d="M152.469 26.5537H157.289C159.301 26.5537 160.894 27.0847 162.068 28.1465C163.241 29.1944 163.828 30.5427 163.828 32.1914C163.828 33.8541 163.241 35.2164 162.068 36.2783C160.894 37.3262 159.301 37.8501 157.289 37.8501H155.361V41.2244H152.469V26.5537ZM155.361 35.1256H157.52C158.539 35.1256 159.385 34.8811 160.056 34.392C160.74 33.903 161.082 33.1695 161.082 32.1914C161.082 31.2553 160.74 30.5357 160.056 30.0328C159.371 29.5298 158.526 29.2783 157.52 29.2783H155.361V35.1256Z" fill="#002040"/>
<path d="M168.231 28.6078C169.684 27.1408 171.444 26.4072 173.512 26.4072C175.58 26.4072 177.341 27.1408 178.794 28.6078C180.261 30.0609 180.994 31.8214 180.994 33.8893C180.994 35.9571 180.261 37.7246 178.794 39.1917C177.341 40.6448 175.58 41.3713 173.512 41.3713C171.444 41.3713 169.684 40.6448 168.231 39.1917C166.778 37.7246 166.051 35.9571 166.051 33.8893C166.051 31.8214 166.778 30.0609 168.231 28.6078ZM176.782 30.4731C175.902 29.5789 174.812 29.1318 173.512 29.1318C172.213 29.1318 171.123 29.5789 170.243 30.4731C169.376 31.3673 168.943 32.506 168.943 33.8893C168.943 35.2865 169.376 36.4322 170.243 37.3264C171.123 38.2066 172.213 38.6467 173.512 38.6467C174.826 38.6467 175.915 38.2066 176.782 37.3264C177.662 36.4322 178.102 35.2865 178.102 33.8893C178.102 32.506 177.662 31.3673 176.782 30.4731Z" fill="#002040"/>
<path d="M199.878 41.2244L196.86 36.5088C196.511 35.9918 196.21 35.6425 195.959 35.4609C195.707 35.2793 195.344 35.1884 194.869 35.1884H194.072V41.2244H191.18V35.1884H190.384C189.895 35.1884 189.524 35.2793 189.273 35.4609C189.021 35.6425 188.728 35.9918 188.393 36.5088L185.375 41.2244H182.105L185.689 35.6286C186.36 34.5946 186.954 33.9589 187.471 33.7214C187.024 33.4838 186.458 32.897 185.773 31.9609L182.336 26.5537H185.605L188.476 31.0807C188.826 31.5976 189.126 31.9469 189.378 32.1286C189.629 32.3102 189.993 32.401 190.468 32.401H191.18V26.5537H194.072V32.401H194.764C195.239 32.401 195.602 32.3102 195.854 32.1286C196.12 31.9469 196.42 31.5976 196.755 31.0807L199.647 26.5537H202.917L199.459 31.9609C198.816 32.8691 198.257 33.4559 197.782 33.7214C198.299 33.9729 198.893 34.6086 199.563 35.6286L203.147 41.2244H199.878Z" fill="#002040"/>
<path d="M219.932 43.928H217.04V41.2244H207.483V43.928H204.591V38.4998H206.54L211.444 26.5537H213.163L218.004 38.4998H219.932V43.928ZM212.261 31.8561L209.642 38.4998H214.902L212.261 31.8561Z" fill="#002040"/>
<path d="M225.604 32.4848H231.954V35.2094H225.604V38.4998H232.478V41.2244H222.712V26.5537H232.478V29.2783H225.604V32.4848Z" fill="#002040"/>
<path d="M247.06 41.2244H244.168V35.2094H238.488V41.2244H235.596V26.5537H238.488V32.4848H244.168V26.5537H247.06V41.2244Z" fill="#002040"/>
<path d="M262.407 41.2244H259.515V31.9819L252.557 41.2244H250.859V26.5537H253.752V35.7962L260.689 26.5537H262.407V41.2244Z" fill="#002040"/>
<path d="M269.286 32.4848H275.637V35.2094H269.286V38.4998H276.161V41.2244H266.394V26.5537H276.161V29.2783H269.286V32.4848Z" fill="#002040"/>
<path d="M28.6644 37.2449V11.7363L23.6345 7.96387L15.2512 14.2513V41.3483C18.4595 40.1696 22.0649 39.1384 25.6386 38.1163C26.653 37.8262 27.6649 37.5367 28.6644 37.2449Z" fill="#002040"/>
<path d="M28.2453 37.3672V11.4222L27.407 10.7935V37.6096C27.6871 37.5289 27.9666 37.4481 28.2453 37.3672Z" fill="white"/>
<path d="M26.9877 37.7299V10.4788L26.1494 9.8501V37.9701C26.4292 37.8901 26.7087 37.81 26.9877 37.7299Z" fill="white"/>
<path d="M25.7304 38.0903V9.53597L24.8921 8.90723V38.3302C25.141 38.2589 25.39 38.1877 25.6388 38.1165C25.6693 38.1078 25.6999 38.0991 25.7304 38.0903Z" fill="white"/>
<path d="M24.4728 38.4501V8.59261L23.6345 7.96387V38.6912C23.9137 38.6106 24.1932 38.5303 24.4728 38.4501Z" fill="white"/>
<path d="M36.2095 34.7991V27.2457L32.4371 25.1499L25.7305 28.084V38.0905C29.4183 37.0357 33.0684 35.9893 36.2095 34.7991Z" fill="#002040"/>
<path d="M35.7902 34.9558V27.0126L34.9519 26.5469V35.2589C35.2348 35.1588 35.5143 35.0578 35.7902 34.9558Z" fill="white"/>
<path d="M34.5327 35.4055V26.3139L33.6943 25.8481V35.6906C33.9766 35.5963 34.2561 35.5013 34.5327 35.4055Z" fill="white"/>
<path d="M33.2753 35.8298V25.6156L32.437 25.1499V36.101C32.7187 36.0112 32.9982 35.9209 33.2753 35.8298Z" fill="white"/>
<path d="M20.7005 39.5548V24.7305L15.6706 21.7964L7.28735 26.4072V45.4325C10.343 42.9712 15.3265 41.1773 20.7005 39.5548Z" fill="#002040"/>
<path d="M20.2812 39.682V24.4861L19.4429 23.9971V39.9403C19.7209 39.8537 20.0005 39.7676 20.2812 39.682Z" fill="white"/>
<path d="M16.5087 40.9004C16.2267 40.998 15.9471 41.0965 15.6704 41.1961V21.7964L16.5087 22.2854V40.9004Z" fill="white"/>
<path d="M17.7663 40.4763C17.4848 40.5689 17.2053 40.6623 16.928 40.7566V22.5298L17.7663 23.0188V40.4763Z" fill="white"/>
<path d="M19.0239 40.0718C18.7428 40.1605 18.4632 40.2498 18.1855 40.3398V23.2637L19.0239 23.7527V40.0718Z" fill="white"/>
<path d="M20.2571 46.6876C20.2651 46.6851 20.2731 46.6821 20.2812 46.6792V46.7018L20.2571 46.6876Z" fill="white"/>
<path d="M51.0895 29.5507C50.0102 45.0597 4.7723 43.8022 7.28723 58.0537C-8.85046 37.7243 43.255 40.2393 45.4309 27.4549C47.1075 17.6046 23.425 4.19141 23.425 4.19141C23.425 4.19141 51.9794 16.7663 51.0895 29.5507Z" fill="url(#paint0_linear_2_184)"/>
<path d="M55.4906 33.114C53.8584 50.254 7.07762 50.9284 14.8321 65.8086C-5.28773 47.1559 49.9107 47.9943 52.9756 31.647C54.3903 24.102 47.5265 18.4434 47.5265 18.4434C47.5265 18.4434 56.3289 24.3116 55.4906 33.114Z" fill="url(#paint1_linear_2_184)"/>
<defs>
<linearGradient id="paint0_linear_2_184" x1="27.6508" y1="4.19141" x2="27.6508" y2="58.0537" gradientUnits="userSpaceOnUse">
<stop stop-color="#409FFF"/>
<stop offset="1" stop-color="#007FFF"/>
</linearGradient>
<linearGradient id="paint1_linear_2_184" x1="32.9885" y1="18.4434" x2="32.9885" y2="65.8086" gradientUnits="userSpaceOnUse">
<stop stop-color="#409FFF"/>
<stop offset="1" stop-color="#007FFF"/>
</linearGradient>
</defs>
</svg>
