<svg width="25" height="25" viewBox="0 0 25 25" fill="none" xmlns="http://www.w3.org/2000/svg">
<g clip-path="url(#clip0_2_63)">
<path d="M9.88437 0.00458984L10.6438 0.00146484H14.3562L15.1167 0.00458984L16.0687 0.0150065L16.5198 0.0222982L16.9552 0.0337565L17.375 0.0483398L17.7792 0.0650065L18.1687 0.0868815L18.5437 0.112923L18.9031 0.144173L19.25 0.178548C21.0625 0.382715 22.3052 0.820215 23.2427 1.75771C24.1802 2.69521 24.6177 3.93688 24.8219 5.75042L24.8573 6.0973L24.8875 6.45771L24.9135 6.83271L24.9344 7.22125L24.9604 7.83375L24.9729 8.26084L24.9865 8.93167L24.9958 9.8848L25 10.9056L24.999 14.3567L24.9958 15.1171L24.9854 16.0692L24.9781 16.5202L24.9667 16.9556L24.9521 17.3754L24.9354 17.7796L24.9135 18.1692L24.8875 18.5442L24.8562 18.9035L24.8219 19.2504C24.6177 21.0629 24.1802 22.3056 23.2427 23.2431C22.3052 24.1806 21.0635 24.6181 19.25 24.8223L18.9031 24.8577L18.5427 24.8879L18.1677 24.914L17.7792 24.9348L17.1667 24.9608L16.7396 24.9733L16.0687 24.9869L15.1156 24.9963L14.0948 25.0004L10.6438 24.9994L9.88333 24.9963L8.93125 24.9858L8.48021 24.9785L8.04479 24.9671L7.625 24.9525L7.22083 24.9358L6.83125 24.914L6.45625 24.8879L6.09687 24.8567L5.75 24.8223C3.9375 24.6181 2.69479 24.1806 1.75729 23.2431C0.819792 22.3056 0.382292 21.064 0.178125 19.2504L0.142708 18.9035L0.1125 18.5431L0.0864583 18.1681L0.065625 17.7796L0.0395833 17.1671L0.0270833 16.74L0.0135417 16.0692L0.00416667 15.116L0 14.0952L0.00104167 10.6442L0.00416667 9.88375L0.0145833 8.93167L0.021875 8.48063L0.0333333 8.04521L0.0479167 7.62542L0.0645833 7.22125L0.0864583 6.83167L0.1125 6.45667L0.14375 6.0973L0.178125 5.75042C0.382292 3.93792 0.819792 2.69521 1.75729 1.75771C2.69479 0.820215 3.93646 0.382715 5.75 0.178548L6.09687 0.143131L6.45729 0.112923L6.83229 0.0868815L7.22083 0.0660482L7.83333 0.0400065L8.26042 0.0275065L8.93125 0.0139648L9.88437 0.00458984ZM7.07292 7.60459H4.21875C4.35417 14.1046 7.60417 18.0108 13.3021 18.0108H13.625V14.2921C15.7187 14.5004 17.3021 16.0317 17.9375 18.0108H20.8958C20.0833 15.0525 17.9479 13.4171 16.6146 12.7921C17.9479 12.0213 19.8229 10.1463 20.2708 7.60459H17.5833C17 9.66709 15.2708 11.5421 13.625 11.7192V7.60459H10.9375V14.8129C9.27083 14.3963 7.16667 12.3754 7.07292 7.60459Z" fill="#000"/>
</g>
<defs>
<clipPath id="clip0_2_63">
<rect width="25" height="25"/>
</clipPath>
</defs>
</svg>
